<svg width="60" height="60" viewBox="0 0 60 60" fill="none" xmlns="http://www.w3.org/2000/svg">
<g id="FilterRight" clip-path="url(#clip0_44_17461)">
<path id="Vector" d="M61.5 39.375C61.5 38.8777 61.2629 38.4008 60.841 38.0492C60.419 37.6975 59.8467 37.5 59.25 37.5H45.75C45.1533 37.5 44.581 37.6975 44.159 38.0492C43.737 38.4008 43.5 38.8777 43.5 39.375C43.5 39.8723 43.737 40.3492 44.159 40.7008C44.581 41.0525 45.1533 41.25 45.75 41.25H59.25C59.8467 41.25 60.419 41.0525 60.841 40.7008C61.2629 40.3492 61.5 39.8723 61.5 39.375ZM61.5 28.125C61.5 27.6277 61.2629 27.1508 60.841 26.7992C60.419 26.4475 59.8467 26.25 59.25 26.25H27.75C27.1533 26.25 26.581 26.4475 26.159 26.7992C25.7371 27.1508 25.5 27.6277 25.5 28.125C25.5 28.6223 25.7371 29.0992 26.159 29.4508C26.581 29.8025 27.1533 30 27.75 30H59.25C59.8467 30 60.419 29.8025 60.841 29.4508C61.2629 29.0992 61.5 28.6223 61.5 28.125ZM61.5 16.875C61.5 16.3777 61.2629 15.9008 60.841 15.5492C60.419 15.1975 59.8467 15 59.25 15H9.75C9.15326 15 8.58097 15.1975 8.15901 15.5492C7.73705 15.9008 7.5 16.3777 7.5 16.875C7.5 17.3723 7.73705 17.8492 8.15901 18.2008C8.58097 18.5525 9.15326 18.75 9.75 18.75H59.25C59.8467 18.75 60.419 18.5525 60.841 18.2008C61.2629 17.8492 61.5 17.3723 61.5 16.875Z" fill="#1E1E1E"/>
</g>
<defs>
<clipPath id="clip0_44_17461">
<rect width="60" height="60" fill="white"/>
</clipPath>
</defs>
</svg>
