<svg width="187" height="39" viewBox="0 0 187 39" fill="none" xmlns="http://www.w3.org/2000/svg">
<path d="M169.393 11.4893L169.044 11.5994C167.685 8.80025 165.744 6.57197 163.22 4.91459C160.735 3.25717 157.61 2.42846 153.844 2.42846C151.747 2.42846 149.748 2.852 147.845 3.69908C145.943 4.50942 144.273 5.6696 142.837 7.17963C141.439 8.65287 140.313 10.4392 139.459 12.5386C138.605 14.6379 138.178 16.9583 138.178 19.4996C138.178 22.0409 138.605 24.3613 139.459 26.4607C140.313 28.56 141.439 30.3647 142.837 31.8748C144.273 33.348 145.943 34.4898 147.845 35.3002C149.748 36.1104 151.747 36.5155 153.844 36.5155C157.571 36.5155 160.599 35.963 162.929 34.8581C165.297 33.7164 167.297 31.9853 168.928 29.665L169.277 29.7751L169.161 33.3109C168.268 34.1949 167.239 34.9867 166.074 35.6865C164.91 36.3494 163.648 36.9203 162.289 37.3991C160.969 37.8411 159.59 38.1726 158.154 38.3936C156.717 38.6516 155.281 38.7806 153.844 38.7806C150.855 38.7806 148.001 38.3202 145.283 37.3994C142.565 36.4786 140.178 35.1895 138.12 33.5321C136.062 31.838 134.431 29.8123 133.228 27.4551C132.024 25.0611 131.422 22.4092 131.422 19.4996C131.422 16.5899 132.024 13.9565 133.228 11.5994C134.431 9.20531 136.062 7.16119 138.12 5.467C140.178 3.77276 142.565 2.48366 145.283 1.59972C148.001 0.678923 150.855 0.218523 153.844 0.218523C155.281 0.218523 156.717 0.329015 158.154 0.55C159.59 0.770985 160.969 1.12089 162.289 1.59972C163.648 2.04169 164.91 2.61259 166.074 3.3124C167.239 3.97536 168.268 4.7488 169.161 5.63274L169.393 11.4893ZM41.0585 22.0415C40.6316 22.2254 40.224 22.4649 39.8355 22.76C39.447 23.0544 39.2527 23.4596 39.2527 23.9755V30.7707C37.3891 33.3121 35.0013 35.2826 32.0894 36.6821C29.1775 38.0817 25.9549 38.7815 22.4218 38.7815C19.4322 38.7815 16.5786 38.3211 13.8607 37.4003C11.143 36.4796 8.75518 35.1905 6.69739 33.5331C4.63964 31.8389 3.00896 29.8132 1.80533 27.456C0.601777 25.062 0 22.4102 0 19.5005C0 16.5908 0.601777 13.9574 1.80533 11.6003C3.00896 9.20622 4.63964 7.16209 6.69739 5.46791C8.75518 3.77366 11.143 2.48458 13.8607 1.60068C16.5785 0.679845 19.4322 0.219429 22.4218 0.219429C23.8583 0.219429 25.2949 0.329921 26.7315 0.550906C28.168 0.77189 29.5463 1.1218 30.8664 1.60063C32.2253 2.0426 33.4871 2.61349 34.6519 3.31331C35.8166 3.97626 36.8456 4.74971 37.7386 5.63365L37.9719 11.4897L37.6225 11.5999C36.2636 8.80065 34.3223 6.57236 31.7987 4.91497C29.3138 3.25755 26.1883 2.42885 22.4222 2.42885C20.3256 2.42885 18.3261 2.8524 16.4237 3.69951C14.5212 4.50982 12.8517 5.66999 11.4151 7.18002C10.0174 8.65328 8.89147 10.4396 8.03738 12.539C7.18315 14.6383 6.75603 16.9587 6.75603 19.5001C6.75603 22.0045 7.16372 24.3064 7.97908 26.4058C8.83328 28.5052 9.95924 30.3099 11.357 31.82C12.7935 33.2932 14.463 34.4534 16.3654 35.3005C18.2679 36.1108 20.2868 36.5159 22.4222 36.5159C26.4601 36.5159 29.9156 35.7793 32.7887 34.3061V23.975C32.7887 23.4596 32.5753 23.0544 32.1484 22.7595C31.76 22.4651 31.3717 22.2256 30.9836 22.041L31.0368 21.7651C31.2307 21.7988 31.5802 21.8355 32.0852 21.8752C32.5901 21.9089 33.1143 21.9456 33.6576 21.9853H38.6664C39.1323 21.9516 39.5788 21.9149 40.0059 21.8752C40.4328 21.8415 40.7627 21.8048 40.9957 21.7651L41.0585 22.0415ZM83.2413 1.37922C82.8528 1.56315 82.4646 1.80266 82.0766 2.09775C81.6881 2.39217 81.4747 2.94464 81.4363 3.75514C81.4008 4.63907 81.3621 5.76243 81.3202 7.1252C81.3202 8.45114 81.3025 9.96118 81.267 11.6553C81.267 13.3496 81.2492 15.1912 81.2137 17.18V23.3677C81.1782 25.7617 80.8675 27.8058 80.2815 29.5001C79.6991 31.1942 78.9226 32.6122 77.952 33.754C77.0202 34.8958 75.9719 35.7981 74.8071 36.4611C73.6812 37.1241 72.5552 37.6213 71.4293 37.9527C70.3421 38.3213 69.3133 38.5423 68.3427 38.6157C67.372 38.7262 66.6149 38.7814 66.0714 38.7814C63.8583 38.7814 61.7229 38.5052 59.6651 37.9527C57.6073 37.4373 55.8019 36.5902 54.2489 35.4114C52.6959 34.2328 51.4535 32.7043 50.5217 30.8259C49.5899 28.9476 49.1239 26.6641 49.1239 23.9754V17.7326V11.9868C49.1239 10.2189 49.1062 8.63518 49.0707 7.23564C49.0707 5.79921 49.0529 4.63903 49.0174 3.75509C48.9819 2.94478 48.7685 2.39232 48.3771 2.0977C47.9887 1.80328 47.6004 1.56377 47.2124 1.37917L47.2656 1.10327C47.4596 1.13696 47.7703 1.17366 48.1979 1.21338C48.6638 1.24707 49.1297 1.28377 49.5956 1.32349C50.1005 1.32349 50.5859 1.34034 51.0516 1.37402H53.1482C53.6141 1.34034 54.0994 1.32349 54.6041 1.32349C55.109 1.28981 55.5749 1.25311 56.0018 1.21338C56.4677 1.1797 56.7976 1.14299 56.9915 1.10327L57.0447 1.37917C56.6179 1.5631 56.2102 1.80261 55.8217 2.0977C55.4723 2.39213 55.2781 2.94459 55.239 3.75509C55.2035 4.63903 55.1648 5.79921 55.1229 7.23564V23.9753C55.1229 27.9899 56.113 30.9548 58.093 32.87C60.0732 34.7852 63.0045 35.7428 66.8871 35.7428C68.013 35.7428 69.2943 35.6138 70.7309 35.3557C72.1674 35.0613 73.5069 34.472 74.7493 33.5879C76.0305 32.7039 77.0983 31.4517 77.9525 29.8312C78.8454 28.2106 79.2919 26.0559 79.2919 23.3673C79.2919 20.4577 79.2742 17.9716 79.2387 15.9091C79.2387 13.8097 79.2209 12.0234 79.1854 10.5501C79.1854 9.04007 79.1677 7.75097 79.1321 6.68285C79.0966 5.61479 79.0579 4.63877 79.016 3.7548C78.9805 2.94449 78.767 2.39203 78.3757 2.09742C77.9872 1.80299 77.599 1.56347 77.2109 1.37884L77.2643 1.10299C77.6911 1.17639 78.1764 1.25017 78.7202 1.3243C79.2635 1.35799 79.7682 1.37483 80.2344 1.37483C80.6612 1.37483 81.1465 1.35799 81.6903 1.3243C82.2727 1.2509 82.7775 1.17712 83.2046 1.10299L83.2413 1.37922ZM125.501 11.4893L125.152 11.5994C123.793 8.80025 121.851 6.57197 119.328 4.91459C116.843 3.25717 113.717 2.42846 109.951 2.42846C107.855 2.42846 105.855 2.852 103.953 3.69908C102.05 4.50942 100.381 5.6696 98.9443 7.17963C97.5466 8.65287 96.4207 10.4392 95.5665 12.5386C94.7123 14.638 94.2853 16.9583 94.2853 19.4996C94.2853 22.0409 94.7124 24.3613 95.5665 26.4607C96.4208 28.56 97.5467 30.3647 98.9444 31.8748C100.381 33.348 102.05 34.4898 103.953 35.3002C105.855 36.1104 107.855 36.5155 109.951 36.5155C113.679 36.5155 116.707 35.963 119.037 34.8581C121.405 33.7164 123.405 31.9853 125.035 29.665L125.385 29.7751L125.269 33.3109C124.376 34.1948 123.347 34.9867 122.182 35.6864C121.017 36.3494 119.755 36.9203 118.396 37.3991C117.076 37.8411 115.698 38.1725 114.261 38.3935C112.825 38.6516 111.388 38.7806 109.952 38.7806C106.962 38.7806 104.108 38.3202 101.391 37.3994C98.6729 36.4786 96.2851 35.1895 94.2273 33.5321C92.1695 31.8379 90.5389 29.8122 89.3353 27.455C88.1317 25.061 87.5299 22.4092 87.5299 19.4995C87.5299 16.5899 88.1317 13.9565 89.3353 11.5993C90.5389 9.20527 92.1695 7.16114 94.2273 5.46696C96.2851 3.77271 98.6729 2.48362 101.391 1.59968C104.108 0.678876 106.962 0.218475 109.952 0.218475C111.388 0.218475 112.825 0.328968 114.261 0.549952C115.698 0.770937 117.076 1.12085 118.396 1.59968C119.755 2.04165 121.017 2.61254 122.182 3.31236C123.347 3.97531 124.375 4.74876 125.268 5.63269L125.501 11.4893ZM186.947 37.8419C186.753 37.8082 186.423 37.7715 185.957 37.7318C185.53 37.7318 185.064 37.715 184.559 37.6813C184.054 37.6813 183.569 37.6644 183.103 37.6307H179.609C179.143 37.6644 178.678 37.7011 178.212 37.7408C177.785 37.7745 177.455 37.8112 177.222 37.8509L177.169 37.6296C177.557 37.4456 177.945 37.2061 178.333 36.911C178.722 36.6166 178.935 36.0641 178.974 35.2536C179.009 34.3697 179.027 33.4489 179.027 32.4913C179.062 31.5337 179.08 30.4472 179.08 29.2317V25.0883V19.5084V13.9285V9.72978C179.08 8.51436 179.062 7.44625 179.027 6.52545C179.027 5.56785 179.009 4.64708 178.974 3.76314C178.938 2.95283 178.725 2.40037 178.333 2.10576C177.945 1.77428 177.557 1.51656 177.169 1.3326L177.222 1.11133C177.455 1.18474 177.785 1.23998 178.212 1.27707C178.678 1.27707 179.143 1.29391 179.609 1.32759C180.114 1.36128 180.6 1.37812 181.065 1.37812H183.103C183.569 1.34444 184.055 1.32759 184.559 1.32759C185.064 1.29391 185.53 1.2572 185.957 1.21748C186.423 1.1838 186.753 1.14709 186.947 1.10737L187 1.32874C186.573 1.51267 186.165 1.77037 185.777 2.10185C185.428 2.39627 185.233 2.94874 185.194 3.75923C185.159 4.64317 185.12 5.56394 185.078 6.52154V32.4874C185.114 33.445 185.152 34.3658 185.194 35.2497C185.23 36.06 185.424 36.6125 185.777 36.9071C186.165 37.2015 186.573 37.4411 187 37.6257L186.947 37.8419Z" fill="white"/>
</svg>
