<svg width="233" height="39" viewBox="0 0 233 39" fill="none" xmlns="http://www.w3.org/2000/svg">
<path fill-rule="evenodd" clip-rule="evenodd" d="M0 1.09897L3.52162 5.12905V34.6254L0.911551 38.4849L16.8966 38.5098L14.0154 34.9584L13.7163 24.3358L29.1293 24.4206C33.8011 22.8424 38.6036 19.4774 38.8344 12.6745C38.7607 6.08191 34.7942 1.85352 30.1891 1.01227L0 1.09897ZM13.1451 2.98533V21.9347L24.9707 22.0214C27.6615 19.8196 29.7013 18.1334 29.6197 12.847C29.5811 8.53649 28.6845 4.7776 24.7259 2.98626L13.1451 2.98533ZM46.232 0.884049L49.7537 4.91505V34.4114L47.1436 38.2727L63.1278 38.2958L60.2466 34.7444L59.9474 24.1218H60.0115L76.5255 38.4157L90.2304 38.3022L77.7222 27.3235H67.2802L63.5998 24.1421L75.3604 24.2066C80.0322 22.6284 84.8339 19.2634 85.0655 12.4605C84.9927 5.86883 81.0263 1.63951 76.4203 0.799186L46.232 0.884049ZM59.3763 2.77041V21.7198L71.2019 21.8065C73.8935 19.6047 75.9325 17.9185 75.8509 12.6311C75.8123 8.32156 74.9156 4.56176 70.9571 2.77041H59.3763ZM103.425 0.841617H117.208L135.149 34.6254C135.926 37.2341 138.248 36.9121 139.798 38.0559H122.427L125.037 37.2276L124.874 34.7121L120.388 27.4231L105.137 27.5098L101.875 34.5415C101.766 35.3412 100.923 35.9482 101.549 36.9416L102.773 38.1417L95.2698 37.9701L98.5326 36.9416L110.846 10.6175V8.81598L105.643 1.77327L103.425 0.841617ZM106.101 25.1032L112.436 12.9337L119.031 25.035L106.101 25.1032ZM196.627 0.915411H210.409L228.351 34.6992C229.127 37.3078 231.45 36.9859 233 38.1297H215.628L218.238 37.2995L218.075 34.7841L213.59 27.4969L198.339 27.5836L195.077 34.6134C194.968 35.415 194.125 36.022 194.75 37.0154L195.974 38.2155L188.472 38.0439L191.735 37.0154L204.048 10.6913V8.88885L198.845 1.84706L196.627 0.915411ZM199.303 25.178L205.638 13.0084L212.233 25.1079L199.303 25.178ZM144.565 0.490173L169.118 0.627615C177.024 2.50659 182.055 7.40836 183.615 15.9592L183.549 22.6284C182.108 30.2476 177.384 35.5045 169.053 38.1657L144.434 38.2358L144.43 37.4287C148.173 37.1418 148.472 36.7083 148.482 34.4539V4.06457C148.44 2.39775 148.112 1.36002 144.499 1.24564L144.565 0.490173ZM158.521 3.09049L158.498 35.9694C161.736 35.9805 164.545 36.2886 166.132 35.4667C169.728 33.7999 171.399 31.2401 171.551 28.8354L171.465 9.42109C171.466 6.31529 168.145 4.12268 166.227 3.5517C164.856 3.03607 162.119 3.01485 158.521 3.09049Z" fill="white" stroke="white" stroke-width="1.02419" stroke-miterlimit="2.613"/>
</svg>
