<svg width="110" height="45" viewBox="0 0 110 45" fill="none" xmlns="http://www.w3.org/2000/svg">
<path d="M104.358 43.6595L88.0606 0.0379678L88.0495 0.00909424H87.7279L84.3719 8.97316L78.2621 25.2925L78.2478 25.2796C76.1303 23.4631 73.1429 22.3276 69.3804 21.9048L68.2329 21.7896L69.3713 21.6477C75.5759 20.5638 79.7467 16.7542 79.7467 12.1643C79.7467 5.87032 73.6574 1.47716 64.935 1.47716H46.7865V1.79583H52.0599V34.3182L39.2527 0.0378609L39.2412 0.00909424H38.9195L35.5634 8.97316L22.6193 43.5472L22.5397 43.5562C22.3185 43.5827 22.0997 43.6038 21.8832 43.6197C21.5576 43.6446 21.2338 43.6594 20.9091 43.6594H7.83013L32.6916 1.79573L32.8764 1.48111H2.46983V14.4314H2.79246C2.84966 8.12353 6.62838 1.79573 14.9772 1.79573H25.0493L0 43.9731H33.7462V31.5658H33.4236C33.3796 37.0637 30.1738 42.2858 23.2024 43.4649L22.9808 43.5017L28.29 29.3146H43.1629L48.5221 43.6595H43.2355V43.9732H63.9853V43.6595H58.6761V22.0209H64.8022C71.0365 22.0209 74.612 24.7286 74.612 29.4474V33.2858C74.612 33.7087 74.6416 34.327 74.6743 34.8442V34.863L71.3815 43.6575H67.08V43.9711H75.9842V43.6575H71.7288L74.7274 35.6492C74.7336 35.7267 74.7366 35.7733 74.7366 35.7733L74.8194 36.4949L74.899 36.9723C75.3993 39.9253 76.5611 42.0961 78.351 43.4242L78.6083 43.6058C79.9682 44.525 81.6581 44.9905 83.6337 44.9905C86.2506 44.9905 87.9954 44.3562 89.4361 42.8635L89.2472 42.6907C87.9198 43.8817 86.8059 44.3643 85.4103 44.3643C83.0323 44.3643 81.7878 41.5601 81.7878 38.7948V33.4168C81.8004 32.0824 81.5854 30.7552 81.1516 29.4891L81.0924 29.3224V29.3164H91.971L97.3302 43.6614H92.0436V43.9751H110V43.6614L104.358 43.6595ZM28.4084 29.0008L35.7351 9.43182L43.0455 29.0008H28.4084ZM58.6793 21.7062V1.79573H63.3554C69.602 1.79573 72.8997 5.40578 72.8997 12.2319C72.8997 19.4917 71.0068 21.7062 64.8022 21.7062H58.6793ZM80.9657 29.0008L80.934 28.9234C80.4506 27.7787 79.7468 26.7343 78.8603 25.8463L78.5541 25.5485L78.5214 25.5188L84.5392 9.43182L91.8496 29.0008H80.9657Z" fill="white"/>
</svg>
